<?xml version="1.0" encoding="utf-8"?>
<!-- Generator: Adobe Illustrator 24.3.0, SVG Export Plug-In . SVG Version: 6.00 Build 0)  -->
<svg version="1.1" id="Layer_1" xmlns="http://www.w3.org/2000/svg" xmlns:xlink="http://www.w3.org/1999/xlink" x="0px" y="0px"
	 viewBox="0 0 24 24" style="enable-background:new 0 0 24 24;" xml:space="preserve">
<style type="text/css">
	.st0{fill:#FFB849;}
	.st1{opacity:0.26;}
	.st2{fill:#2B374F;}
	.st3{fill:none;stroke:#2B374F;stroke-width:1.2;stroke-miterlimit:10;}
</style>
<g>
	<path class="st0" d="M19.5,15.3l-4.4-0.1l-2.5,3.6c-0.4,0.5-0.8,0.5-1.3,0.2c-0.1-0.1-0.2-0.2-0.4-0.5l-1.3-4.2L5.3,13
		c-0.5-0.1-0.7-0.7-0.6-1.2c0.1-0.2,0.2-0.4,0.4-0.5l3.6-2.5L8.6,4.4c0-0.6,0.4-1,0.8-1c0.2,0,0.5,0,0.6,0.1l3.5,2.7l4.2-1.5
		c0.5-0.1,1.1,0.1,1.2,0.6c0.1,0.2,0.1,0.4,0,0.6l-1.5,4.2l2.7,3.5c0.4,0.4,0.2,1-0.2,1.3C20,15.3,19.7,15.3,19.5,15.3z"/>
	<g class="st1">
		<path d="M19.5,15.3l-4.4-0.1l-2.5,3.6c-0.4,0.5-0.8,0.5-1.3,0.2c-0.1-0.1-0.2-0.2-0.4-0.5l-1.3-4.2l9.2-9.2c0.2,0.2,0.4,0.6,0.2,1
			l-1.5,4.2l2.7,3.5c0.4,0.4,0.2,1-0.2,1.3C20,15.3,19.7,15.3,19.5,15.3z"/>
	</g>
	<path class="st2" d="M3.3,18.1c-0.1,0-0.2,0-0.4-0.1c-0.2-0.2-0.2-0.6,0-0.7l3.6-3.6c0.2-0.2,0.6-0.2,0.7,0c0.2,0.2,0.2,0.6,0,0.7
		L3.6,18C3.5,18.1,3.4,18.1,3.3,18.1z"/>
	<path class="st2" d="M6,18.8c-0.1,0-0.2,0-0.4-0.1c-0.2-0.2-0.2-0.6,0-0.7l3.3-3.3c0.2-0.2,0.6-0.2,0.7,0s0.2,0.6,0,0.7l-3.3,3.3
		C6.3,18.7,6.2,18.8,6,18.8z"/>
	<path class="st2" d="M8.8,19.6c-0.1,0-0.2,0-0.4-0.1c-0.2-0.2-0.2-0.6,0-0.7l1.6-1.6c0.2-0.2,0.6-0.2,0.7,0c0.1,0.2,0.2,0.6,0,0.7
		l-1.6,1.6C9.1,19.6,8.9,19.6,8.8,19.6z"/>
	<path class="st2" d="M7.4,21c-0.1,0-0.2,0-0.4-0.1c-0.2-0.2-0.2-0.6,0-0.7l0.2-0.4c0.2-0.2,0.6-0.2,0.7,0s0.2,0.6,0,0.7l-0.2,0.2
		C7.7,20.9,7.5,21,7.4,21z"/>
	<path class="st3" d="M19.5,15.3l-4.4-0.1l-2.5,3.6c-0.4,0.5-0.8,0.5-1.3,0.2c-0.1-0.1-0.2-0.2-0.4-0.5l-1.3-4.2L5.3,13
		c-0.5-0.1-0.7-0.7-0.6-1.2c0.1-0.2,0.2-0.4,0.4-0.5l3.6-2.5L8.6,4.4c0-0.6,0.4-1,0.8-1c0.2,0,0.5,0,0.6,0.1l3.5,2.7l4.2-1.5
		c0.5-0.1,1.1,0.1,1.2,0.6c0.1,0.2,0.1,0.4,0,0.6l-1.5,4.2l2.7,3.5c0.4,0.4,0.2,1-0.2,1.3C20,15.3,19.7,15.3,19.5,15.3z"/>
</g>
</svg>
