<?xml version="1.0" encoding="utf-8"?>
<!-- Generator: Adobe Illustrator 24.3.0, SVG Export Plug-In . SVG Version: 6.00 Build 0)  -->
<svg version="1.1" id="Layer_1" xmlns="http://www.w3.org/2000/svg" xmlns:xlink="http://www.w3.org/1999/xlink" x="0px" y="0px"
	 viewBox="0 0 24 24" style="enable-background:new 0 0 24 24;" xml:space="preserve">
<style type="text/css">
	.st0{fill:#FFB849;}
	.st1{opacity:0.26;}
	.st2{fill:#2B374F;}
	.st3{fill:none;stroke:#2B374F;stroke-width:1.2;stroke-miterlimit:10;}
</style>
<g>
	<path class="st0" d="M18.1,14.8l-3.6-0.1l-2.1,3c-0.3,0.4-0.7,0.4-1.1,0.2c-0.1-0.1-0.2-0.2-0.3-0.4L9.9,14l-3.5-1.1
		c-0.4-0.1-0.6-0.6-0.5-1c0.1-0.2,0.2-0.3,0.3-0.4l3-2.1L9.1,5.8C9.1,5.3,9.4,5,9.8,5C10,5,10.2,5,10.3,5.1l2.9,2.2l3.5-1.2
		c0.4-0.1,0.9,0.1,1,0.5c0.1,0.2,0.1,0.3,0,0.5l-1.2,3.5l2.2,2.9c0.3,0.3,0.2,0.8-0.2,1.1C18.5,14.8,18.3,14.8,18.1,14.8z"/>
	<g class="st1">
		<path d="M18.1,14.8l-3.6-0.1l-2.1,3c-0.3,0.4-0.7,0.4-1.1,0.2c-0.1-0.1-0.2-0.2-0.3-0.4L9.9,14l7.6-7.6c0.2,0.2,0.3,0.5,0.2,0.8
			l-1.2,3.5l2.2,2.9c0.3,0.3,0.2,0.8-0.2,1.1C18.5,14.8,18.3,14.8,18.1,14.8z"/>
	</g>
	<path class="st2" d="M4.7,17.1c-0.1,0-0.2,0-0.3-0.1c-0.2-0.2-0.2-0.5,0-0.6l3-3c0.2-0.2,0.5-0.2,0.6,0c0.2,0.2,0.2,0.5,0,0.6l-3,3
		C4.9,17.1,4.8,17.1,4.7,17.1z"/>
	<path class="st2" d="M7,17.7c-0.1,0-0.2,0-0.3-0.1c-0.2-0.2-0.2-0.5,0-0.6l2.7-2.7c0.2-0.2,0.5-0.2,0.6,0s0.2,0.5,0,0.6l-2.7,2.7
		C7.2,17.6,7.1,17.7,7,17.7z"/>
	<path class="st2" d="M9.3,18.3c-0.1,0-0.2,0-0.3-0.1c-0.2-0.2-0.2-0.5,0-0.6l1.3-1.3c0.2-0.2,0.5-0.2,0.6,0s0.2,0.5,0,0.6l-1.3,1.3
		C9.5,18.3,9.4,18.3,9.3,18.3z"/>
	<path class="st2" d="M8.1,19.5c-0.1,0-0.2,0-0.3-0.1c-0.2-0.2-0.2-0.5,0-0.6L8,18.5c0.2-0.2,0.5-0.2,0.6,0s0.2,0.5,0,0.6l-0.2,0.2
		C8.4,19.4,8.2,19.5,8.1,19.5z"/>
	<path class="st3" d="M18.1,14.8l-3.6-0.1l-2.1,3c-0.3,0.4-0.7,0.4-1.1,0.2c-0.1-0.1-0.2-0.2-0.3-0.4L9.9,14l-3.5-1.1
		c-0.4-0.1-0.6-0.6-0.5-1c0.1-0.2,0.2-0.3,0.3-0.4l3-2.1L9.1,5.8C9.1,5.3,9.4,5,9.8,5C10,5,10.2,5,10.3,5.1l2.9,2.2l3.5-1.2
		c0.4-0.1,0.9,0.1,1,0.5c0.1,0.2,0.1,0.3,0,0.5l-1.2,3.5l2.2,2.9c0.3,0.3,0.2,0.8-0.2,1.1C18.5,14.8,18.3,14.8,18.1,14.8z"/>
</g>
</svg>
